<svg xmlns="http://www.w3.org/2000/svg" xmlns:xlink="http://www.w3.org/1999/xlink" version="1.1" width="1000" height="1000" viewBox="0 0 1000 1000" xml:space="preserve">
<desc>Created with Fabric.js 3.5.0</desc>
<defs>
</defs>
<rect x="0" y="0" width="100%" height="100%" fill="rgba(255,255,255,0)"/>
<g transform="matrix(-0.9965 0 0 0.9965 497.9728 499.4972)" id="665569">
<g style="" vector-effect="non-scaling-stroke">
		<g transform="matrix(1 0 0 1 -1000 0)">
<polygon style="stroke: none; stroke-width: 1; stroke-dasharray: none; stroke-linecap: butt; stroke-dashoffset: 0; stroke-linejoin: miter; stroke-miterlimit: 4; is-custom-font: none; font-file-url: none; fill: rgb(255,255,255); fill-opacity: 0.16; fill-rule: nonzero; opacity: 1;" points="-625,-500 125,500 625,500 -375,-500 "/>
</g>
		<g transform="matrix(1 0 0 1 -750 0)">
<polygon style="stroke: none; stroke-width: 1; stroke-dasharray: none; stroke-linecap: butt; stroke-dashoffset: 0; stroke-linejoin: miter; stroke-miterlimit: 4; is-custom-font: none; font-file-url: none; fill: rgb(255,255,255); fill-opacity: 0.12; fill-rule: nonzero; opacity: 1;" points="-625,-500 375,500 625,500 -375,-500 "/>
</g>
		<g transform="matrix(1 0 0 1 -500 0)">
<polygon style="stroke: none; stroke-width: 1; stroke-dasharray: none; stroke-linecap: butt; stroke-dashoffset: 0; stroke-linejoin: miter; stroke-miterlimit: 4; is-custom-font: none; font-file-url: none; fill: rgb(255,255,255); fill-opacity: 0.08; fill-rule: nonzero; opacity: 1;" points="-625,-500 375,500 625,500 -375,-500 "/>
</g>
		<g transform="matrix(1 0 0 1 -250 0)">
<polygon style="stroke: none; stroke-width: 1; stroke-dasharray: none; stroke-linecap: butt; stroke-dashoffset: 0; stroke-linejoin: miter; stroke-miterlimit: 4; is-custom-font: none; font-file-url: none; fill: rgb(255,255,255); fill-opacity: 0.04; fill-rule: nonzero; opacity: 1;" points="-625,-500 375,500 625,500 -375,-500 "/>
</g>
		<g transform="matrix(1 0 0 1 0 0)">
<polygon style="stroke: none; stroke-width: 1; stroke-dasharray: none; stroke-linecap: butt; stroke-dashoffset: 0; stroke-linejoin: miter; stroke-miterlimit: 4; is-custom-font: none; font-file-url: none; fill: none; fill-rule: nonzero; opacity: 1;" points="-625,-500 375,500 625,500 -375,-500 "/>
</g>
		<g transform="matrix(1 0 0 1 250 0)">
<polygon style="stroke: none; stroke-width: 1; stroke-dasharray: none; stroke-linecap: butt; stroke-dashoffset: 0; stroke-linejoin: miter; stroke-miterlimit: 4; is-custom-font: none; font-file-url: none; fill: rgb(0,0,0); fill-opacity: 0.025; fill-rule: nonzero; opacity: 1;" points="-625,-500 375,500 625,500 -375,-500 "/>
</g>
		<g transform="matrix(1 0 0 1 500 0)">
<polygon style="stroke: none; stroke-width: 1; stroke-dasharray: none; stroke-linecap: butt; stroke-dashoffset: 0; stroke-linejoin: miter; stroke-miterlimit: 4; is-custom-font: none; font-file-url: none; fill: rgb(0,0,0); fill-opacity: 0.05; fill-rule: nonzero; opacity: 1;" points="-625,-500 375,500 625,500 -375,-500 "/>
</g>
		<g transform="matrix(1 0 0 1 750 0)">
<polygon style="stroke: none; stroke-width: 1; stroke-dasharray: none; stroke-linecap: butt; stroke-dashoffset: 0; stroke-linejoin: miter; stroke-miterlimit: 4; is-custom-font: none; font-file-url: none; fill: rgb(0,0,0); fill-opacity: 0.075; fill-rule: nonzero; opacity: 1;" points="-625,-500 375,500 625,500 -375,-500 "/>
</g>
		<g transform="matrix(1 0 0 1 1000 0)">
<polygon style="stroke: none; stroke-width: 1; stroke-dasharray: none; stroke-linecap: butt; stroke-dashoffset: 0; stroke-linejoin: miter; stroke-miterlimit: 4; is-custom-font: none; font-file-url: none; fill: rgb(0,0,0); fill-opacity: 0.1; fill-rule: nonzero; opacity: 1;" points="-625,-500 375,500 625,500 -375,-500 "/>
</g>
</g>
</g>
</svg>